<svg viewBox="0 0 120 120" xmlns="http://www.w3.org/2000/svg">
  <!-- Background -->
  <circle cx="60" cy="60" r="60" fill="#0F1B2D"/>
  <!-- Stars -->
  <circle cx="15" cy="20" r="1.5" fill="#FAF8F5" opacity="0.8"/>
  <circle cx="95" cy="15" r="1" fill="#FAF8F5" opacity="0.6"/>
  <circle cx="105" cy="40" r="1.5" fill="#FAF8F5" opacity="0.7"/>
  <circle cx="20" cy="45" r="1" fill="#FAF8F5" opacity="0.5"/>
  <circle cx="10" cy="80" r="1.2" fill="#FAF8F5" opacity="0.6"/>
  <circle cx="100" cy="75" r="1" fill="#FFD93D" opacity="0.5"/>
  <circle cx="30" cy="12" r="1.8" fill="#FFD93D" opacity="0.4"/>
  <circle cx="85" cy="95" r="1" fill="#FAF8F5" opacity="0.5"/>
  <circle cx="25" cy="100" r="1.3" fill="#FAF8F5" opacity="0.4"/>
  <circle cx="108" cy="60" r="0.8" fill="#FAF8F5" opacity="0.6"/>
  <!-- Twinkle star -->
  <path d="M78 25 L79.5 21 L81 25 L85 26.5 L81 28 L79.5 32 L78 28 L74 26.5 Z" fill="#FAF8F5" opacity="0.7"/>
  <!-- Body -->
  <ellipse cx="60" cy="104" rx="24" ry="14" fill="#1A2744"/>
  <ellipse cx="60" cy="104" rx="18" ry="10" fill="#243354"/>
  <!-- Neck -->
  <rect x="53" y="80" width="14" height="10" rx="3" fill="#E8C4A0"/>
  <!-- Face -->
  <circle cx="60" cy="65" r="24" fill="#F5D6B8"/>
  <!-- Hair -->
  <path d="M36 60 Q36 38 60 36 Q84 38 84 60" fill="#2A1F14"/>
  <!-- Telescope hat -->
  <rect x="54" y="20" width="12" height="18" rx="6" fill="#7A6255"/>
  <rect x="50" y="16" width="20" height="8" rx="4" fill="#5C4033"/>
  <!-- Telescope tube -->
  <rect x="62" y="10" width="24" height="6" rx="3" fill="#8B7355" transform="rotate(-25, 74, 13)"/>
  <circle cx="83" cy="5" r="5" fill="#5C4033"/>
  <circle cx="83" cy="5" r="3.5" fill="#7A8BA8" opacity="0.5"/>
  <!-- Dreamy eyes (half closed) -->
  <ellipse cx="50" cy="64" rx="4" ry="2.5" fill="#2A1F14"/>
  <ellipse cx="70" cy="64" rx="4" ry="2.5" fill="#2A1F14"/>
  <circle cx="51" cy="63.5" r="0.8" fill="#FAF8F5"/>
  <circle cx="71" cy="63.5" r="0.8" fill="#FAF8F5"/>
  <!-- Dreamy smile -->
  <path d="M54 74 Q60 78 66 74" fill="none" stroke="#2A1F14" stroke-width="1.8" stroke-linecap="round"/>
  <!-- Freckles -->
  <circle cx="44" cy="68" r="1" fill="#D4A87C" opacity="0.5"/>
  <circle cx="47" cy="70" r="1" fill="#D4A87C" opacity="0.5"/>
  <circle cx="73" cy="70" r="1" fill="#D4A87C" opacity="0.5"/>
  <circle cx="76" cy="68" r="1" fill="#D4A87C" opacity="0.5"/>
</svg>